<svg height="512pt" viewBox="0 -17 512.12379 512" width="512pt" xmlns="http://www.w3.org/2000/svg"><path d="m49.816406 301.59375c-9.773437 0-19.128906-3.988281-25.894531-11.046875-9.554687-10.878906-13.296875-25.6875-10.058594-39.796875.460938-2.914062 1.121094-6.003906 1.804688-9.136719 2.355469-6.71875 2.738281-13.96875 1.105469-20.898437-3.914063-6.449219-8.742188-12.292969-14.335938-17.355469-3.289062-3.40625-3.242188-8.816406.105469-12.164063 3.347656-3.347656 8.757812-3.394531 12.164062-.105468 6.796875 6.246094 12.644531 13.449218 17.355469 21.390625 4.101562 10.539062 4.3125 22.195312.589844 32.871093-.597656 2.804688-1.207032 5.5625-1.613282 8.191407-2.066406 8.675781-.121093 17.820312 5.300782 24.898437 4.875 5.027344 12.125 6.953125 18.847656 5.007813 4.570312-1.273438 9.3125 1.355469 10.65625 5.902343 1.339844 4.546876-1.214844 9.332032-5.742188 10.742188-3.339843.988281-6.800781 1.496094-10.285156 1.5zm0 0" fill="#3f5c6c"/><path d="m96.445312 335.34375-24.792968-17.800781c-7.984375-5.695313-13.058594-14.617188-13.875-24.390625-.816406-9.777344 2.710937-19.414063 9.640625-26.355469 2.207031-2.191406 4.707031-4.070313 7.425781-5.582031l24.117188-13.320313.0625-.058593zm0 0" fill="#3d324c"/><path d="m453.058594 187.21875-20.570313 33.238281-78.445312 136.242188c-6.703125 13.636719-15.617188 26.070312-26.382813 36.792969-1.824218 1.824218-3.730468 3.644531-5.640625 5.296874l-.171875.171876-.523437.519531c-12.832031 11.34375-27.664063 20.199219-43.734375 26.121093l-156.203125-43.042968c-42.449219-52.714844-40.761719-128.339844 3.988281-179.113282l.609375-.605468c1.648437-1.910156 3.472656-3.820313 5.292969-5.726563 10.738281-10.75 23.167968-19.660156 36.796875-26.382812l136.242187-78.363281 33.324219-20.652344zm0 0" fill="#2980ba"/><path d="m358.378906 317.820312v31.414063l-4.335937 7.464844c-6.703125 13.636719-15.617188 26.070312-26.382813 36.792969-1.824218 1.824218-3.730468 3.644531-5.640625 5.296874l-.695312.691407c-12.832031 11.34375-27.664063 20.199219-43.734375 26.121093l-156.203125-43.042968c-42.449219-52.714844-40.761719-128.339844 3.988281-179.113282l.609375-.605468c1.648437-1.910156 3.472656-3.820313 5.292969-5.726563 10.738281-10.75 23.167968-19.660156 36.796875-26.382812l5.117187-2.949219v.085938l40.007813 2.34375c22.90625 1.375 40.78125 20.351562 40.785156 43.300781v16.402343c.058594 22.960938 17.953125 41.917969 40.875 43.304688l22.648437 1.300781c22.929688 1.351563 40.84375 20.332031 40.871094 43.300781zm0 0" fill="#285680"/><path d="m339.925781 37.605469c10.167969-10.167969 26.652344-10.167969 36.820313 0l110.449218 110.453125c10.167969 10.167968 10.167969 26.648437 0 36.816406-10.164062 10.167969-26.648437 10.167969-36.816406 0l-110.453125-110.453125c-10.164062-10.164063-10.164062-26.648437 0-36.816406zm0 0" fill="#285680"/><path d="m121.382812 451.550781.003907-86.78125c-.050781-18.488281 9.777343-35.59375 25.773437-44.863281l103.179688-.957031c16.792968 9.125 27.25 26.707031 27.25 45.820312v86.78125zm0 0" fill="#3d324c"/><path d="m108.367188 451.550781h182.238281c7.1875 0 13.015625 5.828125 13.015625 13.015625s-5.828125 13.015625-13.015625 13.015625h-182.238281c-7.1875 0-13.015626-5.828125-13.015626-13.015625s5.828126-13.015625 13.015626-13.015625zm0 0" fill="#285680"/><path d="m125.722656 451.550781h147.527344c7.1875 0 13.015625 5.828125 13.015625 13.015625s-5.828125 13.015625-13.015625 13.015625h-147.527344c-7.1875 0-13.015625-5.828125-13.015625-13.015625s5.828125-13.015625 13.015625-13.015625zm0 0" fill="#2980ba"/><path d="m370.355469 32.925781c17.902343-25.191406 48.96875-37.457031 79.25-31.289062 30.277343 6.164062 54.074219 29.605469 60.699219 59.789062 6.625 30.183594-5.171876 61.433594-30.085938 79.710938zm0 0" fill="#ff5364"/><g fill="#2fa8cc"><path d="m329.65625 182.53125c0 14.378906-11.65625 26.035156-26.035156 26.035156s-26.03125-11.65625-26.03125-26.035156 11.652344-26.03125 26.03125-26.03125 26.035156 11.652344 26.035156 26.03125zm0 0"/><path d="m390.402344 199.886719c-2.300782-.011719-4.507813-.914063-6.160156-2.515625-1.589844-1.660156-2.488282-3.863282-2.519532-6.160156.019532-.582032.078125-1.164063.175782-1.734376.09375-.546874.269531-1.070312.519531-1.5625.171875-.535156.4375-1.035156.78125-1.476562.296875-.496094.648437-.964844 1.042969-1.386719 3.476562-3.210937 8.839843-3.210937 12.320312 0 .347656.433594.695312.867188 1.042969 1.386719.339843.445312.605469.941406.78125 1.476562.25.488282.425781 1.015626.511719 1.5625.101562.570313.164062 1.152344.179687 1.734376-.03125 2.296874-.929687 4.496093-2.515625 6.160156-1.652344 1.597656-3.859375 2.5-6.160156 2.515625zm0 0"/><path d="m373.046875 260.632812c-2.300781-.011718-4.507813-.914062-6.164063-2.515624-1.585937-1.660157-2.484374-3.863282-2.515624-6.160157.019531-.582031.078124-1.164062.175781-1.738281.09375-.542969.269531-1.070312.519531-1.558594.171875-.535156.4375-1.035156.78125-1.476562.296875-.5.644531-.964844 1.039062-1.390625 3.480469-3.210938 8.84375-3.210938 12.324219 0 .347657.4375.695313.871093 1.042969 1.390625.339844.445312.605469.941406.78125 1.476562.25.488282.421875 1.015625.511719 1.558594.101562.574219.164062 1.15625.179687 1.738281-.03125 2.296875-.929687 4.496094-2.515625 6.160157-1.65625 1.597656-3.859375 2.5-6.160156 2.515624zm0 0"/><path d="m347.011719 130.464844c-2.300781-.015625-4.507813-.914063-6.160157-2.515625-1.589843-1.664063-2.488281-3.863281-2.515624-6.164063.015624-.582031.074218-1.160156.171874-1.734375.09375-.542969.269532-1.070312.519532-1.5625.171875-.53125.4375-1.03125.78125-1.472656.296875-.5.648437-.964844 1.042968-1.390625 3.480469-3.210938 8.839844-3.210938 12.320313 0 .347656.433594.695313.867188 1.042969 1.390625.339844.441406.605468.941406.78125 1.472656.25.492188.425781 1.019531.511718 1.5625.101563.574219.164063 1.152344.183594 1.734375-.035156 2.296875-.933594 4.5-2.519531 6.164063-1.652344 1.597656-3.859375 2.5-6.160156 2.515625zm0 0"/></g><path d="m156.097656 243.277344c-2.300781-.011719-4.507812-.914063-6.164062-2.515625-1.585938-1.660157-2.484375-3.863281-2.515625-6.160157.019531-.582031.078125-1.164062.175781-1.738281.09375-.542969.269531-1.070312.519531-1.5625.171875-.53125.4375-1.03125.78125-1.472656.296875-.5.644531-.964844 1.039063-1.390625 3.480468-3.210938 8.84375-3.210938 12.324218 0 .347657.433594.695313.867188 1.042969 1.390625.339844.445313.605469.941406.78125 1.472656.25.492188.421875 1.019531.511719 1.5625.101562.574219.164062 1.15625.179688 1.738281-.03125 2.296876-.929688 4.496094-2.515626 6.160157-1.65625 1.597656-3.859374 2.5-6.160156 2.515625zm0 0" fill="#2980ba"/><path d="m312.300781 347.414062c-2.300781-.015624-4.507812-.914062-6.160156-2.515624-1.589844-1.664063-2.488281-3.863282-2.519531-6.164063.019531-.582031.078125-1.160156.175781-1.734375.09375-.542969.269531-1.070312.519531-1.5625.171875-.53125.4375-1.03125.78125-1.476562.296875-.496094.644532-.960938 1.042969-1.386719 3.476563-3.210938 8.839844-3.210938 12.320313 0 .347656.433593.695312.867187 1.042968 1.386719.339844.445312.605469.945312.78125 1.476562.25.492188.425782 1.019531.511719 1.5625.101563.574219.164063 1.152344.179687 1.734375-.03125 2.296875-.929687 4.5-2.515624 6.164063-1.652344 1.597656-3.859376 2.5-6.160157 2.515624zm0 0" fill="#2980ba"/><path d="m250.859375 326.015625c0 28.753906-23.3125 52.066406-52.066406 52.066406-28.757813 0-52.070313-23.3125-52.070313-52.066406 0-28.757813 23.3125-52.070313 52.070313-52.070313 28.753906 0 52.066406 23.3125 52.066406 52.070313zm0 0" fill="#7f8c8d"/><path d="m216.84375 326.015625c0 9.582031-7.773438 17.355469-17.355469 17.355469-9.585937 0-17.359375-7.773438-17.359375-17.355469 0-9.585937 7.773438-17.359375 17.359375-17.359375 9.582031 0 17.355469 7.773438 17.355469 17.359375zm0 0" fill="#2c3e50"/><path d="m511.546875 71.714844-93.203125 7.464844-.519531.519531-1.128907-1.128907.433594-.519531v-.089843l58.316406-65.601563c20.691407 13.015625 34.058594 34.996094 36.101563 59.355469zm0 0" fill="#b0d3f0"/></svg>